<svg xmlns="http://www.w3.org/2000/svg" viewBox="0 0 1200 630">
  <rect width="1200" height="630" fill="#f3efe6"/>
  <path d="M0 0h1200v630H0z" fill="none" stroke="#c9bfad" stroke-width="2"/>
  <g opacity=".38">
    <path d="M0 126h1200M0 252h1200M0 378h1200M0 504h1200" stroke="#c9bfad" stroke-width="1"/>
    <path d="M120 0v630M240 0v630M360 0v630M480 0v630M600 0v630M720 0v630M840 0v630M960 0v630M1080 0v630" stroke="#c9bfad" stroke-width="1"/>
  </g>
  <circle cx="230" cy="315" r="92" fill="#161514"/>
  <path d="M230 223a92 92 0 0 1 92 92h-92z" fill="#9b4a32"/>
  <path d="M322 315a92 92 0 0 1-92 92v-92z" fill="#2e6f85"/>
  <path d="M230 407a92 92 0 0 1-92-92h92z" fill="#526352"/>
  <path d="M138 315a92 92 0 0 1 92-92v92z" fill="#4b405f"/>
  <circle cx="230" cy="315" r="61" fill="none" stroke="#f3efe6" stroke-width="10"/>
  <text x="390" y="294" fill="#161514" font-family="Georgia, 'Times New Roman', serif" font-size="104">GREBETT</text>
  <text x="394" y="358" fill="#686158" font-family="Arial, sans-serif" font-size="30" letter-spacing="3">ARCHIVES PERSONNELLES</text>
</svg>
